<?xml version="1.0" encoding="UTF-8" standalone="no"?>
<svg
   xmlns:dc="http://purl.org/dc/elements/1.1/"
   xmlns:cc="http://creativecommons.org/ns#"
   xmlns:rdf="http://www.w3.org/1999/02/22-rdf-syntax-ns#"
   xmlns:svg="http://www.w3.org/2000/svg"
   xmlns="http://www.w3.org/2000/svg"
   viewBox="0 0 596 232"
   height="232"
   width="596"
   xml:space="preserve"
   id="svg2"
   version="1.1"><metadata
     id="metadata8"><rdf:RDF><cc:Work
         rdf:about=""><dc:format>image/svg+xml</dc:format><dc:type
           rdf:resource="http://purl.org/dc/dcmitype/StillImage" /><dc:title></dc:title></cc:Work></rdf:RDF></metadata><defs
     id="defs6"><clipPath
       id="clipPath18"
       clipPathUnits="userSpaceOnUse"><path
         style="clip-rule:evenodd"
         id="path16"
         d="M 0,0 H 447.00003 V 173.47343 H 0 Z" /></clipPath><clipPath
       id="clipPath30"
       clipPathUnits="userSpaceOnUse"><path
         style="clip-rule:evenodd"
         id="path28"
         d="M 0,0 H 447.00003 V 173.47343 H 0 Z" /></clipPath></defs><g
     transform="matrix(1.3333333,0,0,1.3333333,0,5.8e-6)"
     id="g10"><g
       id="g12"><g
         clip-path="url(#clipPath18)"
         id="g14"><g
           transform="scale(0.71980679)"
           id="g20"><path
             id="path22"
             style="fill:#ffffff;fill-opacity:1;fill-rule:nonzero;stroke:none"
             d="M 0,0 H 621 V 241 H 0 Z" /></g></g></g><g
       id="g24"><g
         clip-path="url(#clipPath30)"
         id="g26"><g
           transform="matrix(0.71980679,0,0,0.71980679,0.3599034,0.3599034)"
           id="g32"><path
             id="path34"
             style="fill:#f5f5f5;fill-opacity:1;fill-rule:nonzero;stroke:none"
             d="M 140,20 H 360 V 200 H 140 Z" /><path
             id="path36"
             style="fill:none;stroke:#666666;stroke-width:1;stroke-linecap:butt;stroke-linejoin:miter;stroke-miterlimit:10;stroke-dasharray:none;stroke-opacity:1"
             d="M 140,20 H 360 V 200 H 140 Z" /><path
             id="path38"
             style="fill:none;stroke:#000000;stroke-width:1;stroke-linecap:butt;stroke-linejoin:miter;stroke-miterlimit:10;stroke-dasharray:none;stroke-opacity:1"
             d="m 320,60 h 27 v 50 h 20.63" /><path
             id="path40"
             style="fill:#000000;fill-opacity:1;fill-rule:nonzero;stroke:none"
             d="m 372.88,110 -7,3.5 1.75,-3.5 -1.75,-3.5 z" /><path
             id="path42"
             style="fill:none;stroke:#000000;stroke-width:1;stroke-linecap:butt;stroke-linejoin:miter;stroke-miterlimit:10;stroke-dasharray:none;stroke-opacity:1"
             d="m 372.88,110 -7,3.5 1.75,-3.5 -1.75,-3.5 z" /><path
             id="path44"
             style="fill:none;stroke:#000000;stroke-width:1;stroke-linecap:butt;stroke-linejoin:miter;stroke-miterlimit:10;stroke-dasharray:none;stroke-opacity:1"
             d="M 173.63,60 H 150 v 50 h -30" /><path
             id="path46"
             style="fill:#000000;fill-opacity:1;fill-rule:nonzero;stroke:none"
             d="m 178.88,60 -7,3.5 1.75,-3.5 -1.75,-3.5 z" /><path
             id="path48"
             style="fill:none;stroke:#000000;stroke-width:1;stroke-linecap:butt;stroke-linejoin:miter;stroke-miterlimit:10;stroke-dasharray:none;stroke-opacity:1"
             d="m 178.88,60 -7,3.5 1.75,-3.5 -1.75,-3.5 z" /><path
             id="path50"
             style="fill:#dae8fc;fill-opacity:1;fill-rule:nonzero;stroke:none"
             d="M 180,30 H 320 V 90 H 180 Z" /><path
             id="path52"
             style="fill:none;stroke:#6c8ebf;stroke-width:1;stroke-linecap:butt;stroke-linejoin:miter;stroke-miterlimit:10;stroke-dasharray:none;stroke-opacity:1"
             d="M 180,30 H 320 V 90 H 180 Z" /></g><g
           transform="matrix(0.71980679,0,0,0.71980679,138.92271,28.792271)"
           id="g54"><text
             id="text58"
             style="font-variant:normal;font-weight:normal;font-size:12px;font-family:Helvetica;-inkscape-font-specification:Helvetica;writing-mode:lr-tb;fill:#000000;fill-opacity:1;fill-rule:nonzero;stroke:none"
             transform="translate(0.953125,11)"><tspan
               id="tspan56"
               y="0"
               x="0 8.0039062 14.677734 21.351562 24.017578 30.691406 34.025391 43.359375 50.033203 56.707031 59.373047 62.039062 65.373047 71.373047 74.707031 84.703125 91.376953 98.050781 104.72461 107.39062">Audio Quality Module</tspan></text>
<text
             id="text62"
             style="font-variant:normal;font-weight:normal;font-size:12px;font-family:Helvetica;-inkscape-font-specification:Helvetica;writing-mode:lr-tb;fill:#000000;fill-opacity:1;fill-rule:nonzero;stroke:none"
             transform="translate(34.75,25)"><tspan
               id="tspan60"
               y="0"
               x="0 6.4570312 9.7910156 16.464844 23.138672 29.8125 36.486328 39.820312">P.1203.2</tspan></text>
<text
             id="text66"
             style="font-variant:normal;font-weight:normal;font-size:12px;font-family:Helvetica;-inkscape-font-specification:Helvetica;writing-mode:lr-tb;fill:#000000;fill-opacity:1;fill-rule:nonzero;stroke:none"
             transform="translate(50.65625,39)"><tspan
               id="tspan64"
               y="0"
               x="0 8.0039062">Pa</tspan></text>
</g><g
           transform="matrix(0.71980679,0,0,0.71980679,0.3599034,0.3599034)"
           id="g68"><path
             id="path70"
             style="fill:none;stroke:#000000;stroke-width:1;stroke-linecap:butt;stroke-linejoin:miter;stroke-miterlimit:10;stroke-dasharray:none;stroke-opacity:1"
             d="m 320,160 h 27 v -50 h 20.63" /><path
             id="path72"
             style="fill:#000000;fill-opacity:1;fill-rule:nonzero;stroke:none"
             d="m 372.88,110 -7,3.5 1.75,-3.5 -1.75,-3.5 z" /><path
             id="path74"
             style="fill:none;stroke:#000000;stroke-width:1;stroke-linecap:butt;stroke-linejoin:miter;stroke-miterlimit:10;stroke-dasharray:none;stroke-opacity:1"
             d="m 372.88,110 -7,3.5 1.75,-3.5 -1.75,-3.5 z" /><path
             id="path76"
             style="fill:none;stroke:#000000;stroke-width:1;stroke-linecap:butt;stroke-linejoin:miter;stroke-miterlimit:10;stroke-dasharray:none;stroke-opacity:1"
             d="M 173.63,160 H 150 v -50 h -30" /><path
             id="path78"
             style="fill:#000000;fill-opacity:1;fill-rule:nonzero;stroke:none"
             d="m 178.88,160 -7,3.5 1.75,-3.5 -1.75,-3.5 z" /><path
             id="path80"
             style="fill:none;stroke:#000000;stroke-width:1;stroke-linecap:butt;stroke-linejoin:miter;stroke-miterlimit:10;stroke-dasharray:none;stroke-opacity:1"
             d="m 178.88,160 -7,3.5 1.75,-3.5 -1.75,-3.5 z" /><path
             id="path82"
             style="fill:#dae8fc;fill-opacity:1;fill-rule:nonzero;stroke:none"
             d="m 180,130 h 140 v 60 H 180 Z" /><path
             id="path84"
             style="fill:none;stroke:#6c8ebf;stroke-width:1;stroke-linecap:butt;stroke-linejoin:miter;stroke-miterlimit:10;stroke-dasharray:none;stroke-opacity:1"
             d="m 180,130 h 140 v 60 H 180 Z" /></g><g
           transform="matrix(0.71980679,0,0,0.71980679,138.92271,100.77295)"
           id="g86"><text
             id="text90"
             style="font-variant:normal;font-weight:normal;font-size:12px;font-family:Helvetica;-inkscape-font-specification:Helvetica;writing-mode:lr-tb;fill:#000000;fill-opacity:1;fill-rule:nonzero;stroke:none"
             transform="translate(0.0625,11)"><tspan
               id="tspan88"
               y="0"
               x="0 7.7929688 10.458984 17.132812 23.806641 30.480469 33.814453 43.148438 49.822266 56.496094 59.162109 61.828125 65.162109 71.162109 74.496094 84.492188 91.166016 97.839844 104.51367 107.17969">Video Quality Module</tspan></text>
<text
             id="text94"
             style="font-variant:normal;font-weight:normal;font-size:12px;font-family:Helvetica;-inkscape-font-specification:Helvetica;writing-mode:lr-tb;fill:#000000;fill-opacity:1;fill-rule:nonzero;stroke:none"
             transform="translate(33.75,25)"><tspan
               id="tspan92"
               y="0"
               x="0 6.4570312 9.7910156 16.464844 23.138672 29.8125 36.486328 39.820312">P.1203.1</tspan></text>
<text
             id="text98"
             style="font-variant:normal;font-weight:normal;font-size:12px;font-family:Helvetica;-inkscape-font-specification:Helvetica;writing-mode:lr-tb;fill:#000000;fill-opacity:1;fill-rule:nonzero;stroke:none"
             transform="translate(49.984375,39)"><tspan
               id="tspan96"
               y="0"
               x="0 8.0039062">Pv</tspan></text>
</g><g
           transform="matrix(0.71980679,0,0,0.71980679,0.3599034,0.3599034)"
           id="g100"><path
             id="path102"
             style="fill:#ffffff;fill-opacity:1;fill-rule:nonzero;stroke:none"
             d="m 0,80 h 120 v 60 H 0 Z" /><path
             id="path104"
             style="fill:none;stroke:#000000;stroke-width:1;stroke-linecap:butt;stroke-linejoin:miter;stroke-miterlimit:10;stroke-dasharray:none;stroke-opacity:1"
             d="m 0,80 h 120 v 60 H 0 Z" /></g><g
           transform="matrix(0.71980679,0,0,0.71980679,1.4396136,64.782608)"
           id="g106"><text
             id="text110"
             style="font-variant:normal;font-weight:normal;font-size:12px;font-family:Helvetica;-inkscape-font-specification:Helvetica;writing-mode:lr-tb;fill:#000000;fill-opacity:1;fill-rule:nonzero;stroke:none"
             transform="translate(44.65625,11)"><tspan
               id="tspan108"
               y="0"
               x="0 3.3339844 10.007812 16.681641 23.355469">Input</tspan></text>
<text
             id="text114"
             style="font-variant:normal;font-weight:normal;font-size:12px;font-family:Helvetica;-inkscape-font-specification:Helvetica;writing-mode:lr-tb;fill:#000000;fill-opacity:1;fill-rule:nonzero;stroke:none"
             transform="translate(11.3125,25)"><tspan
               id="tspan112"
               y="0"
               x="0 6.6738281 9.3398438 12.673828 18.673828 22.007812 26.003906 32.677734 39.351562 49.347656 55.347656 58.681641 64.681641 67.347656 74.021484 80.695312 87.369141">bitstreams/videos</tspan></text>
<text
             id="text118"
             style="font-variant:normal;font-weight:normal;font-size:12px;font-family:Helvetica;-inkscape-font-specification:Helvetica;writing-mode:lr-tb;fill:#000000;fill-opacity:1;fill-rule:nonzero;stroke:none"
             transform="translate(27.8125,39)"><tspan
               id="tspan116"
               y="0"
               x="0 7.0078125 10.341797 20.337891 27.011719 30.345703 37.019531 43.693359 50.367188 53.701172">+ metadata</tspan></text>
</g><g
           transform="matrix(0.71980679,0,0,0.71980679,0.3599034,0.3599034)"
           id="g120"><path
             id="path122"
             style="fill:none;stroke:#000000;stroke-width:1;stroke-linecap:butt;stroke-linejoin:miter;stroke-miterlimit:10;stroke-dasharray:none;stroke-opacity:1"
             d="m 494,110 h 39.63" /><path
             id="path124"
             style="fill:#000000;fill-opacity:1;fill-rule:nonzero;stroke:none"
             d="m 538.88,110 -7,3.5 1.75,-3.5 -1.75,-3.5 z" /><path
             id="path126"
             style="fill:none;stroke:#000000;stroke-width:1;stroke-linecap:butt;stroke-linejoin:miter;stroke-miterlimit:10;stroke-dasharray:none;stroke-opacity:1"
             d="m 538.88,110 -7,3.5 1.75,-3.5 -1.75,-3.5 z" /><path
             id="path128"
             style="fill:#d5e8d4;fill-opacity:1;fill-rule:nonzero;stroke:none"
             d="M 374,20 H 494 V 200 H 374 Z" /><path
             id="path130"
             style="fill:none;stroke:#82b366;stroke-width:1;stroke-linecap:butt;stroke-linejoin:miter;stroke-miterlimit:10;stroke-dasharray:none;stroke-opacity:1"
             d="M 374,20 H 494 V 200 H 374 Z" /></g><g
           transform="matrix(0.71980679,0,0,0.71980679,275.686,54.705315)"
           id="g132"><text
             id="text136"
             style="font-variant:normal;font-weight:normal;font-size:12px;font-family:Helvetica;-inkscape-font-specification:Helvetica;writing-mode:lr-tb;fill:#000000;fill-opacity:1;fill-rule:nonzero;stroke:none"
             transform="translate(0.96875,11)"><tspan
               id="tspan134"
               y="0"
               x="0 8.0039062 14.677734 21.351562 24.017578 30.691406 36.691406 39.357422 45.357422 52.03125 58.705078 61.371094 64.705078 74.039062 80.712891 87.386719 90.052734 92.71875 96.052734">Audiovisual Quality</tspan></text>
<text
             id="text140"
             style="font-variant:normal;font-weight:normal;font-size:12px;font-family:Helvetica;-inkscape-font-specification:Helvetica;writing-mode:lr-tb;fill:#000000;fill-opacity:1;fill-rule:nonzero;stroke:none"
             transform="translate(2.296875,25)"><tspan
               id="tspan138"
               y="0"
               x="0 3.3339844 10.007812 13.341797 20.015625 26.689453 30.685547 37.359375 40.693359 43.359375 50.033203 56.707031 60.041016 70.037109 76.710938 83.384766 90.058594 92.724609">Integration Module</tspan></text>
<text
             id="text144"
             style="font-variant:normal;font-weight:normal;font-size:12px;font-family:Helvetica;-inkscape-font-specification:Helvetica;writing-mode:lr-tb;fill:#000000;fill-opacity:1;fill-rule:nonzero;stroke:none"
             transform="translate(28.75,39)"><tspan
               id="tspan142"
               y="0"
               x="0 6.4570312 9.7910156 16.464844 23.138672 29.8125 36.486328 39.820312">P.1203.3</tspan></text>
<text
             id="text148"
             style="font-variant:normal;font-weight:normal;font-size:12px;font-family:Helvetica;-inkscape-font-specification:Helvetica;writing-mode:lr-tb;fill:#000000;fill-opacity:1;fill-rule:nonzero;stroke:none"
             transform="translate(44.65625,67)"><tspan
               id="tspan146"
               y="0"
               x="0 8.0039062">Pq</tspan></text>
</g><g
           transform="matrix(0.71980679,0,0,0.71980679,0.3599034,0.3599034)"
           id="g150"><path
             id="path152"
             style="fill:none;stroke:#000000;stroke-width:1;stroke-linecap:butt;stroke-linejoin:miter;stroke-miterlimit:10;stroke-dasharray:none;stroke-opacity:1"
             d="M 120,220 H 434 V 206.37" /><path
             id="path154"
             style="fill:#000000;fill-opacity:1;fill-rule:nonzero;stroke:none"
             d="m 434,201.12 3.5,7 -3.5,-1.75 -3.5,1.75 z" /><path
             id="path156"
             style="fill:none;stroke:#000000;stroke-width:1;stroke-linecap:butt;stroke-linejoin:miter;stroke-miterlimit:10;stroke-dasharray:none;stroke-opacity:1"
             d="m 434,201.12 3.5,7 -3.5,-1.75 -3.5,1.75 z" /><path
             id="path158"
             style="fill:#ffffff;fill-opacity:1;fill-rule:nonzero;stroke:none"
             d="m 0,200 h 120 v 40 H 0 Z" /><path
             id="path160"
             style="fill:none;stroke:#000000;stroke-width:1;stroke-linecap:butt;stroke-linejoin:miter;stroke-miterlimit:10;stroke-dasharray:none;stroke-opacity:1"
             d="m 0,200 h 120 v 40 H 0 Z" /></g><g
           transform="matrix(0.71980679,0,0,0.71980679,1.4396136,149)"
           id="g162"><text
             id="text166"
             style="font-variant:normal;font-weight:normal;font-size:12px;font-family:Helvetica;-inkscape-font-specification:Helvetica;writing-mode:lr-tb;fill:#000000;fill-opacity:1;fill-rule:nonzero;stroke:none"
             transform="translate(13.078125,11)"><tspan
               id="tspan164"
               y="0"
               x="0 8.0039062 14.677734 17.800781 21.134766 27.808594 31.804688 34.470703 41.144531 47.818359 51.152344 57.826172 63.826172 70.5 77.173828 80.507812 86.507812">Buffering events,</tspan></text>
<text
             id="text170"
             style="font-variant:normal;font-weight:normal;font-size:12px;font-family:Helvetica;-inkscape-font-specification:Helvetica;writing-mode:lr-tb;fill:#000000;fill-opacity:1;fill-rule:nonzero;stroke:none"
             transform="translate(17.640625,25)"><tspan
               id="tspan168"
               y="0"
               x="0 6.6738281 10.007812 16.681641 23.355469 27.351562 30.685547 40.681641 47.355469 50.689453 57.363281 64.037109 70.710938 74.044922">other metadata</tspan></text>
</g><g
           transform="matrix(0.71980679,0,0,0.71980679,0.3599034,0.3599034)"
           id="g172"><path
             id="path174"
             style="fill:#ffffff;fill-opacity:1;fill-rule:nonzero;stroke:none"
             d="m 540,100 h 80 v 20 h -80 z" /></g><g
           transform="matrix(0.71980679,0,0,0.71980679,397.33334,74.859909)"
           id="g176"><text
             id="text180"
             style="font-variant:normal;font-weight:normal;font-size:12px;font-family:Helvetica;-inkscape-font-specification:Helvetica;writing-mode:lr-tb;fill:#000000;fill-opacity:1;fill-rule:nonzero;stroke:none"
             transform="translate(0.65625,11)"><tspan
               id="tspan178"
               y="0"
               x="0 7.3300781 9.9960938 16.669922 23.34375 26.009766 29.34375 39.339844 48.673828">Final MOS</tspan></text>
</g><g
           transform="matrix(0.71980679,0,0,0.71980679,102.21256,2.8792272)"
           id="g182"><text
             id="text186"
             style="font-variant:normal;font-weight:normal;font-size:12px;font-family:Helvetica;-inkscape-font-specification:Helvetica;writing-mode:lr-tb;fill:#000000;fill-opacity:1;fill-rule:nonzero;stroke:none"
             transform="translate(0,11)"><tspan
               id="tspan184"
               y="0"
               x="0 6 12.673828 19.347656 23.34375 26.677734 30.011719 33.345703 40.019531 44.015625 54.011719 57.345703 64.019531 70.693359 77.367188 80.033203 82.699219 86.033203">short term quality</tspan></text>
</g><g
           transform="matrix(0.71980679,0,0,0.71980679,270.64734,2.8792272)"
           id="g188"><text
             id="text192"
             style="font-variant:normal;font-weight:normal;font-size:12px;font-family:Helvetica;-inkscape-font-specification:Helvetica;writing-mode:lr-tb;fill:#000000;fill-opacity:1;fill-rule:nonzero;stroke:none"
             transform="translate(0,11)"><tspan
               id="tspan190"
               y="0"
               x="0 2.6660156 9.3398438 16.013672 22.6875 26.021484 29.355469 36.029297 40.025391 50.021484 53.355469 60.029297 66.703125 73.376953 76.042969 78.708984 82.042969">long term quality</tspan></text>
</g></g></g></g></svg>